<mxfile host="app.diagrams.net" modified="2024-05-04T16:08:46.694Z" agent="Mozilla/5.0 (Windows NT 10.0; Win64; x64) AppleWebKit/537.36 (KHTML, like Gecko) Chrome/124.0.0.0 Safari/537.36" version="24.3.1" etag="-T4DjNzDpGmIbfJSg13T" type="github">
  <diagram name="Page-1" id="Vl64emhkvhunL8OT5iEt">
    <mxGraphModel>
      <root>
        <mxCell id="0" />
        <mxCell id="1" parent="0" />
      </root>
    </mxGraphModel>
  </diagram>
</mxfile>
